<svg xmlns="http://www.w3.org/2000/svg" width="420" height="520" viewBox="0 0 420 520">
  <defs>
    <linearGradient id="paper" x1="0" y1="0" x2="0" y2="1">
      <stop offset="0" stop-color="#ffffff"/>
      <stop offset="1" stop-color="#EFFEFF"/>
    </linearGradient>
    <filter id="shadow" x="-20%" y="-20%" width="140%" height="140%">
      <feDropShadow dx="0" dy="18" stdDeviation="14" flood-color="#0f172a" flood-opacity=".16"/>
    </filter>
  </defs>
  <g filter="url(#shadow)">
    <rect x="46" y="38" width="328" height="444" rx="26" fill="url(#paper)" stroke="#4166D4" stroke-opacity=".18" stroke-width="6"/>
    <rect x="70" y="88" width="280" height="260" rx="22" fill="#ffffff" stroke="#4166D4" stroke-opacity=".12" stroke-width="6"/>

    <!-- stylized lips BEFORE (drier / thinner) -->
    <g transform="translate(90,152)">
      <path d="M40 84c36-40 88-40 124 0 12 14 28 22 46 22-8 22-26 42-52 50-32 10-68 10-100 0-26-8-44-28-52-50 18 0 34-8 46-22z"
            fill="#0f172a" fill-opacity=".08"/>
      <path d="M54 96c30-28 70-28 100 0 10 10 24 16 38 16-8 14-20 26-40 32-26 8-70 8-96 0-20-6-32-18-40-32 14 0 28-6 38-16z"
            fill="#4166D4" fill-opacity=".14" stroke="#4166D4" stroke-opacity=".22" stroke-width="5" stroke-linejoin="round"/>

      <!-- dryness lines -->
      <g stroke="#4166D4" stroke-opacity=".26" stroke-width="4" stroke-linecap="round">
        <path d="M92 114 l-10 10"/>
        <path d="M126 118 l-10 12"/>
        <path d="M160 114 l-10 10"/>
      </g>
    </g>

    <!-- label -->
    <rect x="70" y="372" width="280" height="74" rx="20" fill="#4166D4" fill-opacity=".06" stroke="#4166D4" stroke-opacity=".16"/>
    <text x="210" y="418" text-anchor="middle" font-family="ui-sans-serif, system-ui" font-size="20" letter-spacing="4" fill="#0f172a" fill-opacity=".72">PRIMA</text>
  </g>
</svg>
