<svg xmlns="http://www.w3.org/2000/svg" width="1600" height="900">
    <defs>
      <linearGradient id="g" x1="0" y1="0" x2="1" y2="1">
        <stop offset="0" stop-color="#0b0f14"/>
        <stop offset="1" stop-color="#111827"/>
      </linearGradient>
      <filter id="s" x="-20%" y="-20%" width="140%" height="140%">
        <feDropShadow dx="0" dy="18" stdDeviation="20" flood-opacity="0.35"/>
      </filter>
    </defs>
    <rect width="1600" height="900" fill="url(#g)"/>
    <circle cx="1320" cy="180" r="220" fill="#3b82f6" opacity="0.18"/>
    <circle cx="1240" cy="740" r="320" fill="#3b82f6" opacity="0.12"/>
    <g filter="url(#s)">
      <rect x="120" y="130" rx="32" ry="32" width="1360" height="640" fill="#0f172a" stroke="#1f2937"/>
    </g>
    <text x="200" y="260" fill="#e5e7eb" font-family="Inter, system-ui, -apple-system, Segoe UI, Roboto" font-size="68" font-weight="800">NUD</text>
    <text x="200" y="335" fill="#a1a1aa" font-family="Inter, system-ui, -apple-system, Segoe UI, Roboto" font-size="30" font-weight="500">Asian kitchen • Video & brand rhythm</text>
    <rect x="200" y="390" width="210" height="10" fill="#3b82f6" rx="5"/>
    <text x="200" y="470" fill="#cbd5e1" font-family="Inter, system-ui, -apple-system, Segoe UI, Roboto" font-size="26">
      <tspan x="200" dy="0">Logo • Palette • Tipografia • Applicazioni</tspan>
      <tspan x="200" dy="44">Mockup • Social kit • Linee guida</tspan>
    </text>
    <g transform="translate(200,560)">
      <rect width="360" height="180" rx="22" fill="#111827" stroke="#1f2937"/>
      <rect x="22" y="22" width="110" height="110" rx="18" fill="#3b82f6" opacity="0.55"/>
      <text x="155" y="78" fill="#e5e7eb" font-family="Inter, system-ui" font-size="22" font-weight="700">Key Visual</text>
      <text x="155" y="114" fill="#94a3b8" font-family="Inter, system-ui" font-size="18">Preview 01</text>
    </g>
    <g transform="translate(590,560)">
      <rect width="360" height="180" rx="22" fill="#111827" stroke="#1f2937"/>
      <rect x="22" y="22" width="110" height="110" rx="18" fill="#3b82f6" opacity="0.35"/>
      <text x="155" y="78" fill="#e5e7eb" font-family="Inter, system-ui" font-size="22" font-weight="700">Layout</text>
      <text x="155" y="114" fill="#94a3b8" font-family="Inter, system-ui" font-size="18">Preview 02</text>
    </g>
    <g transform="translate(980,560)">
      <rect width="360" height="180" rx="22" fill="#111827" stroke="#1f2937"/>
      <rect x="22" y="22" width="110" height="110" rx="18" fill="#3b82f6" opacity="0.22"/>
      <text x="155" y="78" fill="#e5e7eb" font-family="Inter, system-ui" font-size="22" font-weight="700">Social</text>
      <text x="155" y="114" fill="#94a3b8" font-family="Inter, system-ui" font-size="18">Preview 03</text>
    </g>
  </svg>