<svg xmlns="http://www.w3.org/2000/svg" width="420" height="520" viewBox="0 0 420 520">
  <defs>
    <linearGradient id="paper" x1="0" y1="0" x2="0" y2="1">
      <stop offset="0" stop-color="#ffffff"/>
      <stop offset="1" stop-color="#EFFEFF"/>
    </linearGradient>
    <filter id="shadow" x="-20%" y="-20%" width="140%" height="140%">
      <feDropShadow dx="0" dy="18" stdDeviation="14" flood-color="#0f172a" flood-opacity=".16"/>
    </filter>
  </defs>
  <g filter="url(#shadow)">
    <rect x="46" y="38" width="328" height="444" rx="26" fill="url(#paper)" stroke="#4166D4" stroke-opacity=".18" stroke-width="6"/>
    <rect x="70" y="88" width="280" height="260" rx="22" fill="#ffffff" stroke="#4166D4" stroke-opacity=".12" stroke-width="6"/>

    <!-- stylized lips AFTER (fuller / hydrated) -->
    <g transform="translate(90,150)">
      <path d="M38 92c40-44 92-44 132 0 14 16 32 25 50 25-10 26-30 50-60 60-36 12-76 12-112 0-30-10-50-34-60-60 18 0 36-9 50-25z"
            fill="#4166D4" fill-opacity=".12"/>
      <path d="M52 106c32-30 74-30 106 0 12 12 28 18 44 18-10 18-24 34-46 40-30 10-72 10-102 0-22-6-36-22-46-40 16 0 32-6 44-18z"
            fill="#4166D4" fill-opacity=".20" stroke="#4166D4" stroke-opacity=".26" stroke-width="5" stroke-linejoin="round"/>
      <!-- highlight -->
      <path d="M92 118c20-10 46-10 66 0" fill="none" stroke="#ffffff" stroke-opacity=".70" stroke-width="6" stroke-linecap="round"/>
    </g>

    <!-- label -->
    <rect x="70" y="372" width="280" height="74" rx="20" fill="#4166D4" fill-opacity=".10" stroke="#4166D4" stroke-opacity=".18"/>
    <text x="210" y="418" text-anchor="middle" font-family="ui-sans-serif, system-ui" font-size="20" letter-spacing="4" fill="#0f172a" fill-opacity=".72">DOPO</text>
  </g>
</svg>
