<svg xmlns="http://www.w3.org/2000/svg" width="512" height="420" viewBox="0 0 512 420">
  <defs>
    <linearGradient id="g" x1="0" y1="0" x2="1" y2="1">
      <stop offset="0" stop-color="#ffffff"/>
      <stop offset="1" stop-color="#EFFEFF"/>
    </linearGradient>
    <filter id="s" x="-20%" y="-20%" width="140%" height="140%">
      <feDropShadow dx="0" dy="14" stdDeviation="10" flood-color="#0f172a" flood-opacity=".18"/>
    </filter>
  </defs>
  <!-- stylized nitrile gloves (clean, minimal) -->
  <g filter="url(#s)">
    <path d="M112 308c-18-44-26-90-18-136 8-50 28-86 52-112 21-23 52-18 68 8l22 38c8 14 6 32-6 44l-22 24c-10 11-12 27-6 41l34 76c10 22-2 48-25 54l-61 16c-18 5-37-4-44-22z" fill="url(#g)" stroke="#4166D4" stroke-opacity=".18" stroke-width="6"/>
    <path d="M252 328c-10-54-12-106 2-156 16-56 52-98 92-130 28-22 66-10 78 24l14 40c6 18 0 38-14 50l-30 26c-12 10-18 26-14 41l16 72c6 28-14 54-42 54h-60c-20 0-36-14-40-36z" fill="url(#g)" stroke="#4166D4" stroke-opacity=".18" stroke-width="6"/>
    <path d="M150 120c20 8 34 24 40 48" fill="none" stroke="#4166D4" stroke-opacity=".16" stroke-width="6" stroke-linecap="round"/>
    <path d="M322 104c18 10 30 26 34 50" fill="none" stroke="#4166D4" stroke-opacity=".16" stroke-width="6" stroke-linecap="round"/>
  </g>
</svg>
